<svg width="18" height="18" viewBox="0 0 18 18" fill="none" xmlns="http://www.w3.org/2000/svg">
<g id="check_circle_on_24">
<path id="&#226;&#134;&#179; Icon Color" fill-rule="evenodd" clip-rule="evenodd" d="M9 18C13.9706 18 18 13.9706 18 9C18 4.02944 13.9706 0 9 0C4.02944 0 0 4.02944 0 9C0 13.9706 4.02944 18 9 18ZM13.8321 7.08211C14.2226 6.69158 14.2226 6.05842 13.8321 5.66789C13.4416 5.27737 12.8084 5.27737 12.4179 5.66789L7.5 10.5858L5.58211 8.66789C5.19158 8.27737 4.55842 8.27737 4.16789 8.66789C3.77737 9.05842 3.77737 9.69158 4.16789 10.0821L6.79289 12.7071C7.18342 13.0976 7.81658 13.0976 8.20711 12.7071L13.8321 7.08211Z" fill="#4BB34B"/>
</g>
</svg>
