<svg width="19" height="19" viewBox="0 0 19 19" fill="none" xmlns="http://www.w3.org/2000/svg">
<path d="M10.0938 0.59375C10.069 0.222656 9.87109 0.0247396 9.5 0C9.12891 0.0247396 8.93099 0.222656 8.90625 0.59375V12.209L5.1582 8.49805C4.88607 8.25065 4.61393 8.25065 4.3418 8.49805C4.0944 8.77018 4.0944 9.04232 4.3418 9.31445L9.0918 14.0645C9.36393 14.3118 9.63607 14.3118 9.9082 14.0645L14.6582 9.31445C14.9056 9.04232 14.9056 8.77018 14.6582 8.49805C14.3861 8.25065 14.1139 8.25065 13.8418 8.49805L10.0938 12.209V0.59375ZM5.19531 11.875H2.375C1.70703 11.8997 1.15039 12.1348 0.705078 12.5801C0.259766 13.0254 0.0247396 13.582 0 14.25V16.625C0.0247396 17.293 0.259766 17.8496 0.705078 18.2949C1.15039 18.7402 1.70703 18.9753 2.375 19H16.625C17.293 18.9753 17.8496 18.7402 18.2949 18.2949C18.7402 17.8496 18.9753 17.293 19 16.625V14.25C18.9753 13.582 18.7402 13.0254 18.2949 12.5801C17.8496 12.1348 17.293 11.8997 16.625 11.875H13.8047L12.6172 13.0625H16.625C16.9714 13.0625 17.2559 13.1738 17.4785 13.3965C17.7012 13.6191 17.8125 13.9036 17.8125 14.25V16.625C17.8125 16.9714 17.7012 17.2559 17.4785 17.4785C17.2559 17.7012 16.9714 17.8125 16.625 17.8125H2.375C2.02865 17.8125 1.74414 17.7012 1.52148 17.4785C1.29883 17.2559 1.1875 16.9714 1.1875 16.625V14.25C1.1875 13.9036 1.29883 13.6191 1.52148 13.3965C1.74414 13.1738 2.02865 13.0625 2.375 13.0625H6.38281L5.19531 11.875ZM16.0312 15.4375C15.9818 14.8932 15.6849 14.5964 15.1406 14.5469C14.5964 14.5964 14.2995 14.8932 14.25 15.4375C14.2995 15.9818 14.5964 16.2786 15.1406 16.3281C15.6849 16.2786 15.9818 15.9818 16.0312 15.4375Z" fill="#4EB84A"/>
</svg>
