<svg width="24" height="24" viewBox="0 0 24 24" fill="none" xmlns="http://www.w3.org/2000/svg">
<path d="M13.07 0.0407438C13.4975 0.109151 13.9019 0.272743 14.2651 0.563262C14.86 1.03918 15.1433 1.63909 15.3622 2.51493C15.4183 2.73914 15.5153 3.00052 15.6365 3.25421C15.9146 3.37243 16.1866 3.50383 16.4518 3.6479C16.7136 3.58323 16.965 3.49734 17.1657 3.40389C18.5779 2.74644 19.7627 2.78098 20.7329 3.82744C20.8149 3.91595 20.8639 3.97458 20.9705 4.10623L21.5999 4.88337C21.7691 5.09238 21.8414 5.18761 21.9482 5.3653C22.64 6.51673 22.3703 7.58909 21.4958 8.7511C21.3507 8.9439 21.2025 9.1963 21.0786 9.46184C21.1568 9.74437 21.2219 10.0309 21.2736 10.3206C21.4964 10.499 21.7332 10.6554 21.9423 10.7621C22.7464 11.1725 23.2672 11.5835 23.5971 12.2702C23.7985 12.6894 23.8669 13.1202 23.8374 13.5522C23.8218 13.7805 23.7971 13.9078 23.7313 14.1928L23.5064 15.1672C23.4406 15.4521 23.407 15.5773 23.3209 15.7894C23.1581 16.1906 22.9077 16.5479 22.5429 16.8364C21.9454 17.3089 21.2971 17.45 20.3945 17.4663C20.1662 17.4705 19.8933 17.5054 19.6219 17.5652C19.4454 17.809 19.2575 18.0443 19.0588 18.2704C19.0622 18.5446 19.0895 18.814 19.1361 19.0344C19.3233 19.9176 19.3317 20.581 19.0056 21.2695C18.8066 21.6898 18.5148 22.0141 18.1605 22.2631C17.9732 22.3946 17.8588 22.4555 17.5959 22.5837L16.6971 23.0221C16.4342 23.1503 16.3158 23.203 16.0968 23.2696C15.6826 23.3955 15.2473 23.4258 14.7936 23.3238C14.0503 23.1569 13.5327 22.7419 12.9519 22.0506C12.7984 21.8679 12.5887 21.6691 12.3606 21.49C12.2148 21.4967 12.0685 21.5 11.922 21.5C11.7754 21.5 11.6291 21.4967 11.4833 21.49C11.2553 21.6691 11.0455 21.8679 10.892 22.0506C10.3112 22.7419 9.79363 23.1569 9.05032 23.3238C8.59657 23.4258 8.16135 23.3955 7.74709 23.2696C7.52813 23.203 7.40968 23.1503 7.1468 23.0221L6.24801 22.5837C6.16899 22.5453 6.11997 22.521 6.06271 22.4912C4.75116 21.8082 4.36667 20.6441 4.70777 19.0344C4.75446 18.814 4.78172 18.5446 4.78513 18.2704C4.58643 18.0443 4.3985 17.809 4.22203 17.5652C3.95061 17.5054 3.67776 17.4705 3.44942 17.4663C2.54678 17.45 1.89851 17.3089 1.30097 16.8364C0.936208 16.5479 0.685831 16.1906 0.523001 15.7894C0.436934 15.5773 0.403323 15.4521 0.337531 15.1672L0.11258 14.1928C0.0429235 13.8911 0.0172623 13.7565 0.00404908 13.512C-0.0207213 13.0537 0.0669828 12.5984 0.299615 12.1664C0.638563 11.537 1.14026 11.1507 1.90163 10.7621C2.11075 10.6554 2.34752 10.499 2.57028 10.3206C2.62203 10.0309 2.68715 9.74437 2.76533 9.46184C2.64139 9.1963 2.49324 8.9439 2.34815 8.7511C1.47366 7.58909 1.20389 6.51673 1.89574 5.3653C2.00251 5.18761 2.07481 5.09238 2.24406 4.88337L2.87338 4.10623C2.97999 3.97458 3.02898 3.91595 3.11105 3.82744C4.08125 2.78098 5.26599 2.74644 6.67823 3.40389C6.87897 3.49734 7.13034 3.58323 7.3921 3.6479C7.65728 3.50383 7.92934 3.37243 8.20741 3.25421C8.32863 3.00052 8.42562 2.73914 8.48167 2.51493C8.70063 1.63909 8.98393 1.03918 9.57882 0.563262C9.94197 0.272743 10.3464 0.109151 10.7739 0.0407438C10.9547 0.0118175 11.0738 0.00309732 11.264 0.000766277L12.422 0C12.7144 0 12.844 0.00458598 13.07 0.0407438ZM12.5077 2.0002L11.422 2C10.922 2 10.672 2 10.422 3C10.2832 3.55507 9.99037 4.26419 9.58625 4.87084C8.94367 5.08124 8.33932 5.37609 7.78634 5.74228C7.06958 5.67166 6.34626 5.45545 5.83414 5.21704C4.89967 4.78201 4.74234 4.97629 4.42768 5.36487L3.79835 6.14201C3.48369 6.53059 3.32636 6.72487 3.94618 7.54848C4.29504 8.01204 4.66731 8.69838 4.8832 9.40453C4.66214 10.0038 4.51543 10.6392 4.45426 11.2993C3.95265 11.8335 3.3233 12.282 2.81074 12.5436C1.89261 13.0121 1.94884 13.2557 2.06132 13.7429L2.28627 14.7173C2.39875 15.2044 2.45498 15.448 3.48559 15.4667C4.05542 15.477 4.80855 15.6018 5.48847 15.8571C5.8338 16.4319 6.25398 16.9565 6.73552 17.4177C6.82987 18.1352 6.78203 18.8935 6.66433 19.449C6.45065 20.4574 6.67535 20.567 7.12475 20.7862L8.02354 21.2245C8.47294 21.4437 8.69764 21.5533 9.36071 20.7641C9.73251 20.3216 10.3145 19.8067 10.9512 19.4377C11.269 19.4788 11.593 19.5 11.922 19.5C12.2509 19.5 12.5749 19.4788 12.8927 19.4377C13.5294 19.8067 14.1114 20.3216 14.4832 20.7641C15.1463 21.5533 15.371 21.4437 15.8204 21.2245L16.7192 20.7862C17.1686 20.567 17.3933 20.4574 17.1796 19.449C17.0619 18.8935 17.014 18.1352 17.1084 17.4177C17.5899 16.9565 18.0101 16.4319 18.3554 15.8571C19.0354 15.6018 19.7885 15.477 20.3583 15.4667C21.3889 15.448 21.4452 15.2044 21.5576 14.7173L21.7826 13.7429C21.8951 13.2557 21.9513 13.0121 21.0332 12.5436C20.5206 12.282 19.8913 11.8335 19.3897 11.2993C19.3285 10.6392 19.1818 10.0038 18.9607 9.40453C19.1766 8.69838 19.5489 8.01204 19.8977 7.54848C20.5176 6.72487 20.3602 6.53059 20.0456 6.14201L19.4162 5.36487C19.1016 4.97629 18.9443 4.78201 18.0098 5.21704C17.4977 5.45545 16.7743 5.67166 16.0576 5.74228C15.5046 5.37609 14.9002 5.08124 14.2577 4.87084C13.8535 4.26419 13.5607 3.55507 13.422 3C13.1867 2.05882 12.9514 2.00346 12.5077 2.0002ZM11.922 7.5C14.4072 7.5 16.422 9.51472 16.422 12C16.422 14.4853 14.4072 16.5 11.922 16.5C9.43668 16.5 7.42196 14.4853 7.42196 12C7.42196 9.51472 9.43668 7.5 11.922 7.5ZM11.922 9.5C10.5412 9.5 9.42196 10.6193 9.42196 12C9.42196 13.3807 10.5412 14.5 11.922 14.5C13.3027 14.5 14.422 13.3807 14.422 12C14.422 10.6193 13.3027 9.5 11.922 9.5Z" fill="white"/>
</svg>
